<svg xmlns="http://www.w3.org/2000/svg" version="1.1" style="display: block;" viewBox="0 0 2048 2048" width="1024" height="1024" preserveAspectRatio="none">
<path transform="translate(0,0)" fill="rgb(255,254,252)" d="M 0 0 L 2048 0 L 2048 2048 L 0 2048 L 0 0 z"/>
<path transform="translate(0,0)" fill="#00d687" d="M 832.909 1326.16 C 774.486 1265.13 710.107 1202.78 649.956 1142.82 L 604.046 1097.12 C 588.183 1081.34 571.519 1067.35 563.623 1045.87 C 546.225 998.541 587.449 969.143 616.716 939.894 L 703.895 852.992 L 968.653 588.587 C 987.234 570.331 1000.36 561.712 1027 561.626 C 1058.83 561.525 1072.77 580.185 1093.45 600.827 L 1144.69 652.071 C 1205.13 712.545 1267.35 773.39 1327 834.424 L 1425.1 932.841 C 1460.88 968.571 1514.46 1006.17 1476.98 1063.67 C 1470.49 1073.63 1462.18 1081.27 1453.84 1089.63 C 1441.93 1101.56 1429.89 1113.41 1417.95 1125.32 L 1309.47 1233.72 L 1134.63 1408.65 L 1093.67 1449.6 C 1074.27 1469.25 1056.97 1491.34 1026.5 1491.31 C 998.019 1491.28 981.509 1475.46 962.846 1456.26 C 920.705 1412.9 876.639 1371.07 834.439 1327.76 L 832.909 1326.16 z"/>
<path transform="translate(0,0)" fill="#ef7200" d="M 1327 834.424 L 1425.1 932.841 C 1460.88 968.571 1514.46 1006.17 1476.98 1063.67 C 1470.49 1073.63 1462.18 1081.27 1453.84 1089.63 C 1441.93 1101.56 1429.89 1113.41 1417.95 1125.32 L 1309.47 1233.72 L 1134.63 1408.65 L 1093.67 1449.6 C 1074.27 1469.25 1056.97 1491.34 1026.5 1491.31 C 998.019 1491.28 981.509 1475.46 962.846 1456.26 C 920.705 1412.9 876.639 1371.07 834.439 1327.76 L 832.909 1326.16 L 1182.49 977.781 L 1271.82 888.321 C 1282.48 877.518 1316.02 843.146 1327 834.424 z"/>
</svg>

